<svg xmlns="http://www.w3.org/2000/svg" width="627" height="159" viewBox="0 0 627 159">
  <g fill="none" fill-rule="evenodd" transform="translate(0 1)">
    <polyline fill="#27251F" points="11.825 31.584 0 31.584 0 157.378 125.756 157.378 125.756 145.554 11.825 145.554 11.825 31.584"/>
    <polyline fill="#00A490" points="55.404 0 55.404 31.57 125.762 31.57 125.762 101.665 157.463 101.665 157.463 0 55.404 0"/>
    <path fill="#27251F" d="M40.553 102.044C35.247 102.044 30.026 98.787 30.026 89.941 30.026 81.099 35.247 77.886 40.553 77.886 43.805 77.886 46.085 78.815 48.327 81.191L45.067 84.359C43.582 82.726 42.409 82.121 40.553 82.121 38.736 82.121 37.2 82.869 36.178 84.22 35.152 85.521 34.781 87.197 34.781 89.941 34.781 92.691 35.152 94.414 36.178 95.714 37.2 97.064 38.736 97.812 40.553 97.812 42.409 97.812 43.582 97.203 45.067 95.572L48.327 98.697C46.085 101.068 43.805 102.044 40.553 102.044M66.428 84.82C65.687 83.054 64.016 81.841 61.768 81.841 59.537 81.841 57.815 83.054 57.075 84.82 56.6 85.892 56.518 86.593 56.467 88.035L67.082 88.035C67.04 86.593 66.901 85.892 66.428 84.82zM56.467 91.339C56.467 95.388 58.614 97.949 62.47 97.949 65.131 97.949 66.524 97.203 68.196 95.527L71.221 98.369C68.802 100.79 66.524 102.044 62.381 102.044 56.467 102.044 51.774 98.923 51.774 89.941 51.774 82.306 55.721 77.886 61.768 77.886 68.099 77.886 71.784 82.539 71.784 89.246L71.784 91.339 56.467 91.339zM85.701 102.044C81.844 102.044 78.573 101.394 75.785 98.646L78.911 95.527C80.811 97.482 83.369 97.996 85.701 97.996 88.585 97.996 90.864 96.968 90.864 94.734 90.864 93.154 89.981 92.13 87.707 91.943L83.928 91.621C79.514 91.248 76.956 89.246 76.956 85.101 76.956 80.49 80.907 77.886 85.848 77.886 89.381 77.886 92.399 78.632 94.588 80.537L91.616 83.566C90.123 82.306 88.028 81.841 85.795 81.841 82.949 81.841 81.508 83.099 81.508 84.865 81.508 86.267 82.262 87.335 84.776 87.566L88.497 87.896C92.916 88.267 95.524 90.361 95.524 94.55 95.524 99.484 91.334 102.044 85.701 102.044"/>
    <polygon fill="#27251F" points="101.291 101.763 106.037 101.763 106.037 78.167 101.291 78.167"/>
    <path fill="#00A490" d="M192.382 18.927L196.999 18.927 191.476 24.986 188.402 24.975 192.382 18.927zM196.999 43.308L186.382 43.308 186.382 53.944 198.749 53.944 198.749 57.183 182.613 57.183 182.613 27.171 198.543 27.171 198.543 30.405 186.382 30.405 186.382 40.074 196.999 40.074 196.999 43.308zM222.814 47.637C222.65 50.852 221.748 53.316 220.103 55.027 218.463 56.738 216.144 57.594 213.148 57.594 210.139 57.594 207.748 56.449 205.976 54.162 204.202 51.873 203.316 48.772 203.316 44.856L203.316 39.415C203.316 35.512 204.227 32.425 206.046 30.158 207.87 27.89 210.352 26.76 213.498 26.76 216.398 26.76 218.642 27.625 220.227 29.356 221.816 31.088 222.677 33.566 222.814 36.794L219.001 36.794C218.837 34.349 218.322 32.603 217.456 31.56 216.59 30.515 215.271 29.993 213.498 29.993 211.451 29.993 209.877 30.794 208.778 32.395 207.679 33.996 207.129 36.341 207.129 39.433L207.129 44.939C207.129 47.976 207.64 50.302 208.665 51.924 209.687 53.545 211.183 54.356 213.148 54.356 215.11 54.356 216.528 53.871 217.394 52.895 218.26 51.919 218.795 50.165 219.001 47.637L222.814 47.637M244.096 39.557C244.096 36.383 243.578 34.023 242.538 32.478 241.502 30.932 239.911 30.158 237.768 30.158 235.692 30.158 234.124 30.941 233.057 32.507 231.994 34.074 231.454 36.383 231.439 39.433L231.439 44.815C231.439 47.879 231.971 50.215 233.038 51.823 234.101 53.431 235.692 54.232 237.809 54.232 239.922 54.232 241.489 53.491 242.506 52.006 243.527 50.522 244.054 48.25 244.096 45.186L244.096 39.557zM247.865 44.815C247.865 48.91 246.995 52.061 245.249 54.273 243.505 56.486 241.022 57.594 237.809 57.594 234.717 57.594 232.273 56.519 230.482 54.368 228.687 52.217 227.757 49.176 227.688 45.246L227.688 39.598C227.688 35.585 228.577 32.444 230.345 30.169 232.12 27.895 234.593 26.76 237.768 26.76 240.928 26.76 243.39 27.847 245.158 30.025 246.921 32.203 247.829 35.311 247.865 39.351L247.865 44.815z"/>
    <polyline fill="#00A490" points="257.915 53.944 269.686 53.944 269.686 57.183 254.122 57.183 254.122 27.171 257.915 27.171 257.915 53.944"/>
    <polyline fill="#00A490" points="288.988 43.308 278.373 43.308 278.373 53.944 290.737 53.944 290.737 57.183 274.601 57.183 274.601 27.171 290.534 27.171 290.534 30.405 278.373 30.405 278.373 40.074 288.988 40.074 288.988 43.308"/>
    <path fill="#00A490" d="M319.181 49.597C319.181 48.099 318.779 46.949 317.968 46.153 317.158 45.355 315.692 44.582 313.576 43.826 311.458 43.07 309.842 42.275 308.72 41.444 307.602 40.613 306.765 39.665 306.207 38.6 305.651 37.535 305.372 36.314 305.372 34.94 305.372 32.563 306.166 30.606 307.753 29.067 309.341 27.529 311.418 26.76 313.988 26.76 315.747 26.76 317.314 27.151 318.687 27.937 320.06 28.719 321.119 29.814 321.861 31.213 322.603 32.613 322.974 34.152 322.974 35.828L319.181 35.828C319.181 33.974 318.738 32.535 317.843 31.518 316.951 30.501 315.664 29.993 313.988 29.993 312.462 29.993 311.281 30.421 310.443 31.275 309.605 32.127 309.187 33.325 309.187 34.867 309.187 36.133 309.641 37.194 310.548 38.045 311.455 38.902 312.856 39.665 314.752 40.34 317.707 41.316 319.818 42.52 321.089 43.95 322.361 45.378 322.998 47.247 322.998 49.556 322.998 51.988 322.205 53.935 320.624 55.398 319.044 56.862 316.896 57.594 314.175 57.594 312.43 57.594 310.818 57.212 309.341 56.449 307.863 55.686 306.703 54.615 305.857 53.234 305.01 51.853 304.589 50.27 304.589 48.484L308.38 48.484C308.38 50.339 308.901 51.782 309.939 52.812 310.976 53.843 312.388 54.356 314.175 54.356 315.837 54.356 317.089 53.93 317.927 53.078 318.765 52.227 319.181 51.067 319.181 49.597M346.255 27.171L346.255 48.502C346.228 51.347 345.406 53.573 343.783 55.181 342.162 56.788 339.898 57.594 336.999 57.594 334.031 57.594 331.763 56.807 330.199 55.233 328.63 53.66 327.833 51.415 327.806 48.502L327.806 27.171 331.558 27.171 331.558 48.342C331.558 50.361 331.988 51.869 332.847 52.863 333.707 53.859 335.089 54.356 336.999 54.356 338.923 54.356 340.316 53.859 341.175 52.863 342.033 51.869 342.464 50.361 342.464 48.342L342.464 27.171 346.255 27.171M356.261 42.195L362.054 42.195C363.73 42.195 365.015 41.693 365.906 40.688 366.798 39.685 367.248 38.247 367.248 36.373 367.248 34.571 366.787 33.126 365.865 32.038 364.947 30.95 363.683 30.405 362.076 30.405L356.261 30.405 356.261 42.195zM356.261 45.434L356.261 57.183 352.49 57.183 352.49 27.171 362.054 27.171C364.843 27.171 367.035 28.005 368.628 29.674 370.224 31.344 371.019 33.566 371.019 36.341 371.019 39.227 370.261 41.45 368.742 43.011 367.226 44.57 365.087 45.378 362.322 45.434L356.261 45.434zM386.078 18.927L390.695 18.927 385.171 24.986 382.097 24.975 386.078 18.927zM390.695 43.308L380.078 43.308 380.078 53.944 392.445 53.944 392.445 57.183 376.308 57.183 376.308 27.171 392.24 27.171 392.24 30.405 380.078 30.405 380.078 40.074 390.695 40.074 390.695 43.308zM401.482 41.806L406.058 41.806C407.638 41.806 408.898 41.295 409.841 40.276 410.783 39.259 411.251 37.894 411.251 36.187 411.251 32.333 409.507 30.405 406.017 30.405L401.482 30.405 401.482 41.806zM406.757 45.04L401.482 45.04 401.482 57.183 397.691 57.183 397.691 27.171 406.099 27.171C409.039 27.171 411.265 27.937 412.777 29.469 414.289 31.001 415.044 33.245 415.044 36.199 415.044 38.055 414.636 39.671 413.818 41.052 413.001 42.434 411.843 43.473 410.345 44.174L416.158 56.935 416.158 57.183 412.099 57.183 406.757 45.04z"/>
    <polygon fill="#00A490" points="420.683 57.183 424.453 57.183 424.453 27.171 420.683 27.171"/>
    <polyline fill="#00A490" points="445.88 43.308 435.267 43.308 435.267 53.944 447.634 53.944 447.634 57.183 431.494 57.183 431.494 27.171 447.427 27.171 447.427 30.405 435.267 30.405 435.267 40.074 445.88 40.074 445.88 43.308"/>
    <path fill="#00A490" d="M470.771 27.171L470.771 48.502C470.744 51.347 469.917 53.573 468.296 55.181 466.675 56.788 464.412 57.594 461.513 57.594 458.544 57.594 456.277 56.807 454.71 55.233 453.144 53.66 452.347 51.415 452.32 48.502L452.32 27.171 456.072 27.171 456.072 48.342C456.072 50.361 456.501 51.869 457.359 52.863 458.22 53.859 459.601 54.356 461.513 54.356 463.437 54.356 464.83 53.859 465.687 52.863 466.546 51.869 466.976 50.361 466.976 48.342L466.976 27.171 470.771 27.171M480.796 41.806L485.37 41.806C486.953 41.806 488.21 41.295 489.156 40.276 490.093 39.259 490.566 37.894 490.566 36.187 490.566 32.333 488.822 30.405 485.33 30.405L480.796 30.405 480.796 41.806zM486.074 45.04L480.796 45.04 480.796 57.183 477.003 57.183 477.003 27.171 485.412 27.171C488.353 27.171 490.58 27.937 492.091 29.469 493.603 31.001 494.359 33.245 494.359 36.199 494.359 38.055 493.951 39.671 493.132 41.052 492.316 42.434 491.158 43.473 489.658 44.174L495.472 56.935 495.472 57.183 491.41 57.183 486.074 45.04z"/>
    <polyline fill="#00A490" points="514.22 43.308 503.601 43.308 503.601 53.944 515.968 53.944 515.968 57.183 499.831 57.183 499.831 27.171 515.763 27.171 515.763 30.405 503.601 30.405 503.601 40.074 514.22 40.074 514.22 43.308"/>
    <path fill="#00A490" d="M186.382,74.964 L186.382,98.505 L189.415,98.505 C192.066,98.505 194.004,97.744 195.227,96.222 C196.45,94.703 197.073,92.453 197.101,89.466 L197.101,84.144 C197.101,80.982 196.494,78.66 195.278,77.183 C194.062,75.706 192.222,74.964 189.763,74.964 L186.382,74.964 Z M182.613,101.738 L182.613,71.73 L189.763,71.73 C193.267,71.73 195.988,72.824 197.925,75.016 C199.862,77.207 200.833,80.29 200.833,84.261 L200.833,89.29 C200.833,93.259 199.849,96.33 197.884,98.494 C195.919,100.658 193.07,101.738 189.332,101.738 L182.613,101.738 Z"/>
    <polyline fill="#00A490" points="221.514 87.867 210.901 87.867 210.901 98.505 223.268 98.505 223.268 101.738 207.129 101.738 207.129 71.73 223.062 71.73 223.062 74.964 210.901 74.964 210.901 84.634 221.514 84.634 221.514 87.867"/>
    <polyline fill="#00A490" points="242.396 98.505 254.163 98.505 254.163 101.738 238.603 101.738 238.603 71.73 242.396 71.73 242.396 98.505"/>
    <path fill="#00A490" d="M252.113 80.18L250.073 78.697C251.144 76.896 251.701 75.027 251.743 73.089L251.743 70.081 255.35 70.081 255.35 72.861C255.322 74.18 255.015 75.517 254.433 76.871 253.847 78.224 253.075 79.328 252.113 80.18M268.15 90.648L276.332 90.648 272.231 77.006 268.15 90.648zM277.301 93.888L267.16 93.888 264.831 101.738 260.954 101.738 270.623 71.73 273.859 71.73 283.545 101.738 279.671 101.738 277.301 93.888z"/>
    <polyline fill="#00A490" points="291.844 98.505 303.611 98.505 303.611 101.738 288.052 101.738 288.052 71.73 291.844 71.73 291.844 98.505"/>
    <polyline fill="#00A490" points="320.398 74.964 312.506 74.964 312.506 101.738 308.732 101.738 308.732 74.964 300.858 74.964 300.858 71.73 320.398 71.73 320.398 74.964"/>
    <polyline fill="#00A490" points="339.64 87.867 329.025 87.867 329.025 98.505 341.392 98.505 341.392 101.738 325.253 101.738 325.253 71.73 341.187 71.73 341.187 74.964 329.025 74.964 329.025 84.634 339.64 84.634 339.64 87.867"/>
    <path fill="#00A490" d="M350.433,86.363 L355.007,86.363 C356.587,86.363 357.847,85.853 358.787,84.833 C359.73,83.818 360.203,82.453 360.203,80.746 C360.203,76.892 358.457,74.964 354.966,74.964 L350.433,74.964 L350.433,86.363 Z M355.708,89.599 L350.433,89.599 L350.433,101.738 L346.64,101.738 L346.64,71.73 L355.048,71.73 C357.99,71.73 360.216,72.495 361.726,74.027 C363.24,75.558 363.994,77.803 363.994,80.757 C363.994,82.613 363.583,84.23 362.767,85.611 C361.949,86.992 360.794,88.031 359.294,88.732 L365.107,101.492 L365.107,101.738 L361.044,101.738 L355.708,89.599 Z"/>
    <polyline fill="#00A490" points="389.068 101.738 385.275 101.738 373.255 78.615 373.255 101.738 369.464 101.738 369.464 71.73 373.255 71.73 385.316 94.958 385.316 71.73 389.068 71.73 389.068 101.738"/>
    <path fill="#00A490" d="M401.236,90.648 L409.421,90.648 L405.318,77.006 L401.236,90.648 Z M410.39,93.888 L400.249,93.888 L397.919,101.738 L394.044,101.738 L403.71,71.73 L406.949,71.73 L416.634,101.738 L412.757,101.738 L410.39,93.888 Z"/>
    <polyline fill="#00A490" points="440.74 101.738 436.947 101.738 424.931 78.615 424.931 101.738 421.14 101.738 421.14 71.73 424.931 71.73 436.988 94.958 436.988 71.73 440.74 71.73 440.74 101.738"/>
    <path fill="#00A490" d="M466.513,92.197 C466.347,95.412 465.445,97.874 463.804,99.585 C462.162,101.296 459.843,102.15 456.847,102.15 C453.839,102.15 451.447,101.007 449.675,98.718 C447.902,96.431 447.013,93.33 447.013,89.414 L447.013,83.972 C447.013,80.07 447.925,76.984 449.745,74.716 C451.568,72.449 454.048,71.318 457.195,71.318 C460.095,71.318 462.339,72.183 463.923,73.914 C465.515,75.646 466.374,78.124 466.513,81.353 L462.703,81.353 C462.537,78.907 462.019,77.162 461.154,76.117 C460.289,75.074 458.968,74.55 457.195,74.55 C455.148,74.55 453.578,75.353 452.478,76.953 C451.378,78.554 450.83,80.898 450.83,83.992 L450.83,89.496 C450.83,92.531 451.337,94.863 452.365,96.484 C453.388,98.105 454.882,98.917 456.847,98.917 C458.814,98.917 460.228,98.425 461.095,97.451 C461.96,96.476 462.495,94.726 462.703,92.197 L466.513,92.197"/>
    <polyline fill="#00A490" points="486.433 87.867 475.82 87.867 475.82 98.505 488.187 98.505 488.187 101.738 472.048 101.738 472.048 71.73 487.98 71.73 487.98 74.964 475.82 74.964 475.82 84.634 486.433 84.634 486.433 87.867"/>
  </g>
</svg>
